# xmcd
#
# Track frame offsets:
# 150
# 37943
# 59567
# 85368
# 119300
# 144161
# 175785
# 201386
# 253583
# 282186
# 302676
# 327552
#
# Disc length: 4656 seconds
#
# Revision: 1
# Processed by: cddbd v1.5.2PL0 Copyright (c) Steve Scherf et al.
# Submitted via: CedeCatalogueitor 2.6.0.6 http://personales.ya.com/cdcatalogueitor
#
DISCID=ac122e0c
DTITLE=Studebaker John - Waiting On The Sun
DYEAR=2008
DGENRE=
TTITLE0=Down At The Bottom
TTITLE1=She Just Won't Roll
TTITLE2=Every Night Is A Saturday Night
TTITLE3=Hell To Pay
TTITLE4=Partner In Crime
TTITLE5=Nothing But The Rain
TTITLE6=Natural Born Boogie
TTITLE7=Follow Your Soul
TTITLE8=Tell Me So
TTITLE9=Let It Roll On
TTITLE10=I'll Be Rockin'
TTITLE11=Waiting On The Sun
EXTD=
EXTT0=
EXTT1=
EXTT2=
EXTT3=
EXTT4=
EXTT5=
EXTT6=
EXTT7=
EXTT8=
EXTT9=
EXTT10=
EXTT11=
PLAYORDER=
